<svg t="1717638376018" class="icon" viewBox="0 0 1024 1024" version="1.1" xmlns="http://www.w3.org/2000/svg" p-id="9385" xmlns:xlink="http://www.w3.org/1999/xlink" width="200" height="200"><path d="M136.540366 0.000584A48.259799 48.259799 0 0 0 100.807496 15.561986a53.336707 53.336707 0 0 0-15.561403 35.73287v921.410093a48.259799 48.259799 0 0 0 15.561403 35.73287 49.60197 49.60197 0 0 0 35.73287 15.561403h750.83767a48.259799 48.259799 0 0 0 35.73287-15.561403 49.60197 49.60197 0 0 0 15.561403-35.73287V290.104029L648.491056 0.000584z" fill="#787DF6" p-id="9386"></path><path d="M938.594502 290.104029H698.618224a50.983045 50.983045 0 0 1-50.127168-50.127167V-0.018868z" fill="#C4B5FF" p-id="9387"></path><path d="M654.170968 386.156786l-194.400821 54.134229a56.70186 56.70186 0 0 0-42.657694 49.913198v186.62012a74.441859 74.441859 0 0 0-45.458747-4.590614c-46.081203 5.971688-83.448021 38.144888-83.448021 71.971486s37.366818 54.464909 83.448021 48.473769 79.88835-37.113945 79.88835-70.90164v-159.407117c0-14.958398 19.782433-21.396928 19.782433-21.396928l171.914594-49.03787s19.004363-5.835526 19.004362 10.212171v128.109246a91.112012 91.112012 0 0 0-48.901707-5.679912c-46.081203 5.057456-83.467473 36.569296-83.467472 70.318087s37.366818 55.126268 83.467472 50.029909 83.467473-36.569296 83.467473-70.356991v-260.653491c0.038904-21.435832-19.101622-33.84605-42.638243-27.757652z" fill="#FFFFFF" p-id="9388"></path></svg>