<svg t="1721629642739" class="icon" viewBox="0 0 1024 1024" version="1.1" xmlns="http://www.w3.org/2000/svg" p-id="3505" xmlns:xlink="http://www.w3.org/1999/xlink" width="200" height="200"><path d="M984 944H40c-22.1 0-40 17.9-40 40s17.9 40 40 40h944c22.1 0 40-17.9 40-40s-17.9-40-40-40zM170.3 826.7c22.1 0 40-17.9 40-40V253.3c0-22.1-17.9-40-40-40s-40 17.9-40 40v533.3c0 22.2 17.8 40.1 40 40.1zM512 826.7c22.1 0 40-17.9 40-40V40c0-22.1-17.9-40-40-40s-40 17.9-40 40v746.7c0 22.1 17.9 40 40 40zM853.7 826.7c22.1 0 40-17.9 40-40v-240c0-22.1-17.9-40-40-40s-40 17.9-40 40v240c0 22.1 18 40 40 40z" fill="#2c2c2c" p-id="3506"></path></svg>