<svg t="1719997399341" class="icon" viewBox="0 0 1024 1024" version="1.1" xmlns="http://www.w3.org/2000/svg" p-id="7149" width="200" height="200"><path d="M672.226251 24.71257l9.834818 3.227289c127.526336 42.882662 227.949566 135.892815 292.067073 252.809375C1032.85154 399.536909 1045.781088 546.396387 1003.6224 672.209661l-3.227289 9.834818c-42.882662 127.526336-135.892815 227.949566-252.809376 292.067073C628.79806 1032.83495 481.938582 1045.764498 356.125309 1003.605809l-9.834818-3.227288c-127.526336-42.882662-227.949566-135.892815-292.067074-252.809376C-4.49998 628.78147-17.429528 481.921992 24.72916 356.108719l3.227289-9.834818c42.882662-127.526336 135.892815-227.949566 252.809376-292.067074C399.5535-4.51657 546.412978-17.446119 672.226251 24.71257z" fill="#1296DB" p-id="7150"></path><path d="M636.537435 269.43588c23.289502 26.200689 29.004811 58.111589 37.284616 91.45514 3.09473 11.991442 6.209854 23.977786 9.340273 35.96413l4.751711 18.216591c6.903237 25.685751 14.64771 51.075794 22.550233 76.465838 17.910687 57.744504 34.210279 115.901979 50.244755 174.192012 2.564496 9.024172 5.419602 17.971868 8.386871 26.873679 1.967983 13.939032 2.528808 26.89917 0 40.787218-21.535651 19.577865-51.769177 24.375461-79.983735 27.725112C672.226251 758.8825 672.226251 758.8825 662.029446 749.756359c-14.958712-24.018573-20.332428-49.291353-27.087811-76.598396a20500.165767 20500.165767 0 0 0-9.340273-36.066097l-4.751711-18.405233c-7.035795-26.705431-14.734383-53.196729-22.550233-79.677831l-4.389725-14.928121c-2.946877-10.013262-5.90395-20.026524-8.861023-30.034688-8.16764-27.69962-16.258805-55.419633-24.349969-83.134548l-4.608956-15.73367-4.272461-14.617119-3.762621-12.847974c-7.249928-25.593979-10.507807-46.053868-8.386872-72.789889 21.958819-26.353641 64.861874-29.687997 96.869644-25.492012z" fill="#FBFDFE" p-id="7151"></path><path d="M460.642556 267.207878l11.930261-0.112165c28.724399 0.321199 28.724399 0.321199 40.17541 8.932401 11.410224 15.218731 8.687678 33.934966 8.58571 52.23823l0.101968 13.469979c0.101968 14.713989 0.076476 29.427978 0.050984 44.147065l0.076476 30.651595c0.050984 21.423486 0.035689 42.846973-0.015295 64.275557-0.056082 27.470192 0.045886 54.940383 0.193739 82.410575 0.091771 21.107385 0.091771 42.209673 0.061181 63.31196 0 10.130525 0.03059 20.255952 0.096869 30.386477a3681.505309 3681.505309 0 0 1-0.066279 42.469691l0.147854 12.710317c-0.234527 18.231887-1.142042 29.300518-11.894573 44.320411-16.319986 11.012549-31.793637 9.76344-50.718906 8.835531l-10.772924-0.280412A1510.090676 1510.090676 0 0 1 422.404539 763.980902v-10.196805l-15.295207-5.098402c-4.976041-14.938319-5.715309-24.421347-5.67962-39.966376v-15.152451l0.081574-16.314887 0.025492-16.743154c0.025492-17.660866 0.091771-35.321731 0.152952-52.987695 0.03059-11.96595 0.050984-23.9319 0.071378-35.892752 0.056082-29.3566 0.142755-58.708102 0.249822-88.059604l12.847973-0.754564 16.789039-1.157337c5.496078-0.356888 10.997254-0.713776 16.666677-1.070664 15.825441-1.157337 15.825441-1.157337 30.172345-12.312642-1.932294-16.773744-1.932294-16.773744-10.196805-30.590414a854.594192 854.594192 0 0 0-33.460814-2.8704l-18.497003-1.289896L402.01093 432.584753c-0.443561-23.365978-0.713776-46.731955-0.9585-70.103031l-0.387479-20.113197-0.147853-19.322945-0.244724-17.793424c4.323445-38.370576 26.628955-38.921203 60.370182-38.049376z" fill="#FDFEFE" p-id="7152"></path><path d="M309.923587 268.161279l11.257273-0.321199c27.459995-0.198838 27.459995-0.198838 38.554118 8.157444 11.476504 15.223829 8.748858 33.924769 8.64689 52.26882l0.101968 13.469979c0.101968 14.713989 0.076476 29.427978 0.050984 44.147065l0.076476 30.651595c0.050984 21.423486 0.035689 42.846973-0.015295 64.275557-0.056082 27.470192 0.045886 54.940383 0.193739 82.410575 0.091771 21.107385 0.091771 42.209673 0.061181 63.31196 0 10.130525 0.03059 20.255952 0.09687 30.386477a3681.505309 3681.505309 0 0 1-0.06628 42.469691l0.147854 12.710317c-0.239625 18.293067-1.101255 29.275026-12.006737 44.279624-15.799949 10.823908-27.801588 10.314068-46.78294 10.150919l-18.797809 0.15805c-19.547274-3.135517-25.339059-7.703686-37.284616-23.10086-7.040894-14.086886-5.745899-25.466519-5.761194-41.225681l-0.045886-19.746112 0.03059-21.418388-0.015295-21.872146c-0.005098-15.274813 0.005098-30.554725 0.030591-45.834637 0.025492-19.628849 0.010197-39.247501-0.020394-58.876349-0.020394-15.050484-0.010197-30.095869 0-45.146353 0-7.239731 0-14.479463-0.010197-21.719193-0.015295-10.094837 0.010197-20.189673 0.035689-30.28451l0.010197-17.436536C249.058861 407.092742 249.058861 407.092742 254.157263 401.994339c18.466413-1.662079 36.937925-2.620579 55.445125-3.665751 15.244223 0.346691 15.244223 0.346691 21.030909-6.531053 0.851433-12.746006 0.851433-12.746006 0-25.492012-9.824621-9.824621-27.674128-6.908335-40.787218-7.647603-35.122893-1.983278-35.122893-1.983278-40.787218-7.647604a421.464524 421.464524 0 0 1-0.953401-27.082713l-0.219232-14.917925c1.193026-14.32651 3.568882-22.514545 11.369437-34.475396 16.034475-8.019787 33.078434-6.250641 50.667922-6.373003z" fill="#FAFDFE" p-id="7153"></path></svg>