<svg t="1717635817775" class="icon" viewBox="0 0 1024 1024" version="1.1" xmlns="http://www.w3.org/2000/svg" p-id="17156" xmlns:xlink="http://www.w3.org/1999/xlink" width="200" height="200"><path d="M 512 896 c -59.796 0 -116.4 -13.668 -166.856 -38.048 C 313.956 842.88 153.796 950.56 128 928 c -31.176 -27.264 73.416 -186.332 52.368 -222.284 C 147.08 648.848 128 582.652 128 512 c 0 -212.08 171.92 -384 384 -384 s 384 171.92 384 384 s -171.92 384 -384 384 Z m -192 -256 v 64 h 384 v -64 H 320 Z m 165.808 -383.872 L 363.504 576 h 56 l 29.12 -80.192 h 133.952 l 29.12 80.192 h 56 l -122.304 -319.872 h -59.584 Z m -21.504 196.672 l 50.624 -140.224 h 1.792 l 50.176 140.224 h -102.592 Z" fill="#868686" p-id="17157"></path></svg>