<svg t="1721629736988" class="icon" viewBox="0 0 1024 1024" version="1.1" xmlns="http://www.w3.org/2000/svg" p-id="6526" xmlns:xlink="http://www.w3.org/1999/xlink" width="200" height="200"><path d="M902.592 92.032l-781.12 0c-62.016 0-112.448 50.496-112.448 112.448l0 614.912c0 62.08 50.496 112.512 112.448 112.512l781.12 0c62.016 0 112.448-50.432 112.448-112.512l0-614.848c-0.064-62.016-50.496-112.512-112.448-112.512zM950.976 819.456c0 26.752-21.76 48.512-48.448 48.512l-781.056 0c-26.688 0-48.448-21.76-48.448-48.512l0-614.912c0-26.688 21.76-48.448 48.448-48.448l781.12 0c26.688 0 48.448 21.76 48.448 48.448l0 614.912zM158.976 247.552l705.984 0 0 65.984-705.984 0 0-65.984zM544 382.656l321.024 0 0 65.984-321.024 0 0-65.984zM544 516.352l321.024 0 0 94.656-321.024 0 0-94.656zM544 704l262.784 0 0 65.984-262.784 0 0-65.984zM158.976 383.616l305.024 0 0 386.304-305.024 0 0-386.304z" fill="#2c2c2c" p-id="6527"></path></svg>